<?xml version="1.0" standalone="no"?>
<!DOCTYPE svg PUBLIC "-//W3C//DTD SVG 20010904//EN"
 "http://www.w3.org/TR/2001/REC-SVG-20010904/DTD/svg10.dtd">
<svg version="1.0" xmlns="http://www.w3.org/2000/svg"
 width="130.000000pt" height="130.000000pt" viewBox="0 0 130.000000 130.000000"
 preserveAspectRatio="xMidYMid meet">
<metadata>
Created by potrace 1.14, written by Peter Selinger 2001-2017
</metadata>
<g transform="translate(0.000000,130.000000) scale(0.100000,-0.100000)"
fill="#000000" stroke="none">
<path d="M330 650 l0 -410 80 0 80 0 0 110 0 111 35 34 34 35 181 0 181 0 34
35 35 34 0 196 0 196 -35 34 -34 35 -296 0 -295 0 0 -410z m475 215 c47 -46
47 -84 0 -130 l-34 -35 -141 0 -140 0 0 100 0 100 140 0 141 0 34 -35z"/>
</g>
</svg>
